<svg width="32" height="32" viewBox="0 0 32 32" fill="none" xmlns="http://www.w3.org/2000/svg">
<circle cx="16" cy="16" r="16" fill="black" fill-opacity="0.5"/>
<path d="M18.8475 23.3938C17.7829 24.483 16.7359 25.9122 15.7509 27.91C14.8428 25.9161 13.8411 24.4878 12.8086 23.3932C11.6068 22.1192 10.379 21.3151 9.26956 20.6094C9.21413 20.5741 9.15908 20.5391 9.10442 20.5044C8.05333 19.8368 7.14541 19.26 6.39254 18.4314C5.6155 17.5761 4.98637 16.4288 4.62141 14.5935C4.00501 11.4939 5.82757 9.01354 8.27018 7.99253C10.7064 6.97421 13.6548 7.44837 15.3023 10.1942L15.6893 10.8393L16.1342 10.2326C18.1747 7.45007 21.5834 6.96993 24.2457 8.05021C25.5731 8.58886 26.6848 9.5059 27.3335 10.6843C27.9771 11.8536 28.1831 13.3116 27.6542 14.9864C27.1097 16.7109 26.3692 17.7853 25.5108 18.5912C24.7366 19.3181 23.8596 19.8366 22.8685 20.4227C22.7385 20.4996 22.6065 20.5776 22.4725 20.6575C21.3294 21.3385 20.0849 22.1276 18.8475 23.3938Z" fill="#EDDEC4" fill-opacity="0.9" stroke="black"/>
</svg>
